<svg width="24" height="24" viewBox="0 0 24 24" fill="none" xmlns="http://www.w3.org/2000/svg">
<g clip-path="url(#clip0_108_24773)">
<path d="M9.71 18.2895C10.1 17.8995 10.1 17.2695 9.71 16.8795L5.83 12.9995L21 12.9995C21.55 12.9995 22 12.5495 22 11.9995C22 11.4495 21.55 10.9995 21 10.9995L5.82 10.9995L9.7 7.11953C10.09 6.72953 10.09 6.09953 9.7 5.70953C9.31 5.31953 8.68 5.31953 8.29 5.70953L2.7 11.2995C2.31 11.6895 2.31 12.3195 2.7 12.7095L8.3 18.2895C8.68 18.6795 9.32 18.6795 9.71 18.2895Z" fill="#1E0C61"/>
</g>
<defs>
<clipPath id="clip0_108_24773">
<rect width="24" height="24" fill="white" transform="translate(24 24) rotate(-180)"/>
</clipPath>
</defs>
</svg>
