<?xml version="1.0" encoding="UTF-8"?>
<svg id="Capa_1" data-name="Capa 1" xmlns="http://www.w3.org/2000/svg" viewBox="0 0 655.74 446.06">
  <defs>
    <style>
      .cls-1 {
        fill: #e73d47;
      }

      .cls-2 {
        fill: #134c85;
      }

      .cls-3 {
        fill: #184f88;
      }

      .cls-4 {
        fill: #0c4682;
      }

      .cls-5 {
        fill: #0c4681;
      }

      .cls-6 {
        fill: #0c4782;
      }

      .cls-7 {
        fill: #104983;
      }

      .cls-8 {
        fill: #0d6bb2;
      }

      .cls-9 {
        fill: #0f4883;
      }

      .cls-10 {
        fill: #0e4883;
      }

      .cls-11 {
        fill: #1a5189;
      }

      .cls-12 {
        fill: #86a3c0;
      }
    </style>
  </defs>
  <path class="cls-6" d="m655.74,253.15c-4.98-.37-9.96-.76-14.87.47-10.86,2.72-17.84,10.76-19.13,22.24-1.57,13.93-.64,27.93-.72,41.89-.02,3.4-.74,4.56-4.34,4.45-8.65-.27-17.32-.23-25.97-.01-3.16.08-3.86-.94-3.85-3.96.11-30.97.11-61.93,0-92.9-.01-3.1.59-4.37,4.04-4.27,8.32.26,16.65.29,24.97,0,3.57-.13,4.05,1.3,3.94,4.29-.2,5.27-.06,10.55-.06,17.36,2.54-4.87,4.49-8.43,7.16-11.5,7.63-8.78,17.4-12.37,28.82-12.05v33.99Z"/>
  <path class="cls-2" d="m276.89,446.06c-17.15-6.92-18.27-21.81-18.32-37.13-.02-6.83.64-13.62,3.28-20.06,3.87-9.44,10.77-14.08,20.87-13.92,9.69.15,16.78,4.91,19.94,14.44,4.63,13.98,4.48,28.14-.06,42.17-2.5,7.72-8.48,11.82-15.7,14.5h-10Zm21.79-34.64c-.28-5.61-.19-12.79-2.77-19.61-2.63-6.94-7.1-10.21-13.76-10.16-6.82.05-11.43,3.07-13.69,10.19-3.93,12.35-3.96,24.88.11,37.22,2.2,6.68,6.96,9.91,13.36,9.98,6.71.07,11.27-3.2,13.93-9.97,2.04-5.19,2.26-10.69,2.83-17.65Z"/>
  <path class="cls-12" d="m0,137.2c.34.03.68.05,1.01.08,0,8.94,0,17.89,0,26.83-.34.03-.68.05-1.01.08,0-9,0-17.99,0-26.99Z"/>
  <path class="cls-1" d="m285.93,137.24c1.83-.07,3.65-.19,5.48-.19,118.88,0,237.75.03,356.63-.13,5.1,0,6.62,1.26,6.23,6.29-.46,5.96-.19,11.98-.08,17.97.04,2.35-.76,3.42-3.16,3.17-.82-.08-1.66,0-2.5,0-119.21,0-238.42,0-357.63,0-1.66,0-3.32-.12-4.98-.19,0-8.97,0-17.94,0-26.9Z"/>
  <path class="cls-4" d="m1.83,251.78c0-21.81.08-43.62-.08-65.43-.03-3.49.87-4.44,4.39-4.42,26.31.15,52.62.19,78.92-.02,4.16-.03,4.98,1.34,4.82,5.08-.28,6.48-.32,13,.01,19.47.21,4.04-.82,5.43-5.12,5.35-14.65-.28-29.3.02-43.95-.19-3.72-.05-4.97.93-4.74,4.73.33,5.47.26,10.99.02,16.48-.14,3.25.83,4.3,4.16,4.24,11.49-.19,22.98.08,34.46-.16,3.59-.08,4.47,1,4.34,4.44-.27,7.15-.22,14.32-.02,21.47.08,2.92-.93,3.59-3.68,3.55-11.65-.14-23.31.04-34.96-.12-3.14-.04-4.47.63-4.32,4.09.27,5.98.3,12,0,17.97-.19,3.69,1.28,4.38,4.6,4.35,15.65-.15,31.3.07,46.95-.16,4-.06,5.13,1.1,4.96,5.02-.31,7.15-.16,14.32-.05,21.47.04,2.33-.62,3.18-3.09,3.17-28.14-.08-56.28-.11-84.42.03-3.36.02-3.22-1.66-3.22-3.99.04-22.14.02-44.29.02-66.43Z"/>
  <path class="cls-4" d="m348.35,218.82c18.26.13,32.13,4.23,43.37,14.7,28.96,26.99,19.75,73.43-17.51,86.89-22.62,8.17-44.55,5.79-63.32-10.12-15.66-13.27-20.01-31.14-15.61-50.71,4.53-20.16,18.08-32.32,37.47-38.33,6.08-1.88,12.38-2.41,15.61-2.43Zm25.5,52.86c-.04-13.97-9.95-24.64-22.77-24.52-12.93.12-22.69,10.74-22.68,24.67.01,14.11,9.58,24.3,22.82,24.3,13.16,0,22.66-10.27,22.62-24.45Z"/>
  <path class="cls-8" d="m285.93,137.24c0,8.97,0,17.94,0,26.9-7.15.07-14.29.19-21.44.19-85.84.01-171.68.01-257.51,0-1.99,0-3.98-.15-5.97-.23,0-8.94,0-17.89,0-26.83,1.49-.08,2.98-.23,4.47-.23,91.99-.02,183.99-.03,275.98-.03,1.49,0,2.98.15,4.47.23Z"/>
  <path class="cls-5" d="m536.62,310.72c-13.33,17.03-34.98,16.06-46.74,9.42-10.83-6.11-16.05-15.52-16.23-27.85-.17-11.68,5.98-19.35,15.84-24.5,12.39-6.47,25.88-8.15,39.6-8.64,4.93-.17,5.41-.77,3.79-5.45-1.82-5.23-8.25-8.14-15.97-7.26-8.25.94-15.76,3.99-22.82,8.16-2.07,1.22-2.9,1.17-3.96-1.12-2.92-6.33-6.06-12.57-9.24-18.77-.99-1.94-1.11-3.12,1.04-4.39,18.62-10.94,38.35-14.96,59.32-8.63,16.17,4.88,25.81,17.65,26.26,34.97.53,20.8.18,41.62.32,62.43.02,2.41-.72,3.11-3.1,3.08-8.16-.13-16.32-.15-24.48,0-2.71.05-3.98-.57-3.68-3.53.23-2.26.05-4.57.05-7.92Zm-6.7-31.82c-7.13.15-13.04.92-18.12,4.55-3.24,2.32-4.8,5.51-3.37,9.55,1.34,3.79,4.28,5.22,8.14,5.31,7.44.18,14.67-5.67,16.83-13.74,1.41-5.27.9-5.91-3.48-5.68Z"/>
  <path class="cls-6" d="m245.13,218.81c14.55.06,27.01,3.35,37.8,11.89,2.72,2.15,3.8,3.95,1.33,7.32-3.73,5.08-6.93,10.57-10.14,16.01-1.45,2.46-2.49,2.69-4.86.91-7.85-5.87-16.51-9.28-26.56-7.04-13.15,2.94-20.56,15.12-17.7,28.99,2.7,13.08,15.69,21.49,29.06,18.85,7.68-1.52,14.39-5.09,20.49-9.83,2.04-1.59,2.98-1.83,4.24.82,2.93,6.14,6.18,12.14,9.33,18.17.86,1.65,1.73,2.97-.22,4.73-24.07,21.74-73.46,21.68-91.77-12.31-18.59-34.51,4.47-75.92,43.58-78.22,2.15-.13,4.31-.23,5.42-.29Z"/>
  <path class="cls-6" d="m169.71,254.61c-6.7-4.48-13.5-7.42-21.16-8.02-.5-.04-1-.28-1.47-.23-4.01.42-9.68-.68-10.68,4.12-.91,4.35,4.68,4.7,7.84,5.97,8.61,3.46,17.53,6.19,25.28,11.57,18.8,13.06,18.03,38.22-1.58,50.06-4.6,2.78-9.6,4.56-14.89,5.45-17.94,3.02-34.31-.65-49.08-11.4-2.37-1.72-2.79-3.04-1.07-5.55,3.76-5.48,7.39-11.07,10.7-16.82,1.67-2.9,2.84-2.64,5.22-.84,5.66,4.26,12.09,6.95,19.18,7.77,2.13.25,4.34.29,6.45-.01,2.57-.37,5.8-.5,6.45-3.69.71-3.52-2.66-4.27-4.95-5.28-6.07-2.69-12.32-4.98-18.4-7.65-5.34-2.35-10.34-5.3-14.56-9.46-14.09-13.92-11.65-36.04,5.88-45.18,19.95-10.41,40.02-8.91,59.38,2.53,2.38,1.4,3.21,2.74,1.74,5.55-3.6,6.88-6.82,13.96-10.28,21.12Z"/>
  <path class="cls-5" d="m420.67,238.65c0-17.31.09-34.63-.08-51.94-.03-3.52.55-4.97,4.53-4.8,8.31.35,16.65.32,24.97.01,3.82-.14,4.68,1.03,4.66,4.73-.15,30.13-.09,60.27-.08,90.4,0,2.16.05,4.33.16,6.49.37,7.31,2.38,9.46,9.71,9.51,2.97.02,3.55,1.05,3.5,3.73-.16,7.49-.11,14.98-.02,22.47.03,2.34-.35,3.75-3.18,3.79-7.32.11-14.66.51-21.85-1.32-13.57-3.45-21.58-13.8-22.05-30.14-.51-17.63-.11-35.29-.11-52.93-.05,0-.11,0-.16,0Z"/>
  <path class="cls-6" d="m216.75,44.89c15.14-22.45,45.54-20.09,50.5,1.19,2.16-3.42,4.31-6.44,7.11-8.92,9.31-8.27,20.13-10.24,31.66-6.49,10.43,3.4,14.32,12.29,14.65,22.28.58,17.8.26,35.63.4,53.45.02,2.16-.66,3.11-2.84,2.81-.16-.02-.33,0-.5,0q-11.86.49-11.86-11.2c0-11.49.03-22.99-.02-34.48-.01-2.65-.1-5.34-.52-7.95-1.88-11.58-10.76-16.26-21.29-10.86-11.03,5.66-14.71,15.76-14.94,27.4-.21,10.99-.16,21.99.02,32.98.05,3.17-.69,4.22-4.07,4.21-11.17-.06-11.17.09-11.17-10.99,0-11.83,0-23.65,0-35.48,0-1.83,0-3.67-.17-5.49-1.26-13.77-12.15-19.04-23.84-11.33-9.33,6.16-12.57,15.59-12.75,26.24-.19,10.82-.16,21.65.03,32.48.06,3.25-.45,4.63-4.2,4.58-11.03-.14-11.03.05-11.03-11.14,0-20.82.07-41.64-.07-62.46-.03-3.61.49-5.25,4.74-5.13,10.1.29,10.11.04,10.17,10.21,0,.99,0,1.98,0,4.09Z"/>
  <path class="cls-9" d="m166.15.68c5.22-1.06,10.46-.66,15.7-.23-.02,34.48-.14,68.96.04,103.44.02,4.41-1.02,5.64-5.45,5.45-8.54-.38-8.55-.1-9.1-8.73-.03-.45-.25-.88-.57-1.93-4.65,5.52-9.77,9.77-16.57,11.46-17.02,4.23-32.86-3.59-39.39-19.86-5.45-13.56-5.42-27.35.28-40.82,6.81-16.1,23.98-23.99,40.86-19.29,5.66,1.58,10.11,4.87,13.87,9.24.18.21.35.42.53.63.13-.32.26-.64.38-.96-.2-12.81-.39-25.61-.59-38.42Zm.77,69.06c.32-4.28-.68-8.98-2.54-13.47-3.46-8.35-9.32-13.75-18.76-13.97-9.53-.22-16.28,4.54-19.96,13.05-4.44,10.25-4.27,20.76.59,30.89,3.62,7.56,10.05,11.66,18.33,11.67,8.41.01,15.01-3.92,18.94-11.61,2.54-4.98,3.55-10.34,3.41-16.56Z"/>
  <path class="cls-10" d="m46.95.12c5.35-.03,10.69-.06,16.04-.08,6.49,17.75,13.02,35.5,19.47,53.27,6.17,17,12.2,34.06,18.47,51.03,1.35,3.66,1.43,5.1-3.27,4.99-11.28-.27-11.28-.05-15.07-10.86-2.03-5.79-4.24-11.53-6.08-17.38-.74-2.34-1.86-3.07-4.22-3.05-11.49.1-22.97.13-34.46-.02-2.63-.04-3.78.85-4.57,3.27-2.67,8.21-5.63,16.32-8.28,24.53-.84,2.6-2.04,3.71-4.92,3.49-3.93-.3-7.9-.07-12.53-.07C20.81,72.47,33.88,36.3,46.95.12Zm24.25,64.95c-5.28-16.46-11.65-31.7-15.81-48.34-5.56,15.94-10.92,31.18-16.17,46.46-.75,2.17,1.16,1.87,2.4,1.87,9.64.02,19.29.01,29.57.01Z"/>
  <path class="cls-9" d="m513.84,29.07c24.2.02,42.24,17.63,42.11,41.13-.12,23.32-18.59,41.14-42.49,41.01-23.92-.13-42.24-18.11-42.19-41.39.05-23.35,18.25-40.78,42.57-40.76Zm.09,13.18c-15.05-.12-26.88,11.82-27.11,27.36-.23,15.44,11.99,28.39,26.82,28.42,14.73.03,26.56-12.27,26.82-27.88.26-15.37-11.54-27.78-26.53-27.9Z"/>
  <path class="cls-7" d="m585.95,44.5c7.53-11.18,17.99-16.2,31.47-15.45,13.24.74,21.57,8.23,23.4,21.44,1.45,10.45.57,20.95.75,31.42.14,7.99-.07,15.99.08,23.98.05,2.64-.8,3.31-3.39,3.4-12.06.4-12.02.49-12.07-11.68-.05-13.15.14-26.31-.38-39.44-.49-12.5-8.19-17.66-20.42-14.44-11.18,2.95-19.24,12.9-19.56,24.86-.32,12.15-.27,24.31-.16,36.46.03,3.13-.64,4.27-4.06,4.26-11.4-.02-11.4.13-11.4-11.36.01-20.65.14-41.3-.04-61.94-.03-4.02.83-5.48,5.15-5.36,10.11.27,10.13.04,9.91,9.99-.03,1.16-.2,2.32-.3,3.47-.2.59-.47,1.23.38,1.5.09.03.41-.72.63-1.11Z"/>
  <path class="cls-9" d="m419.35,49.01c-6.22-4.46-12.74-7.05-20.21-6.77-3.06.12-5.95.75-8.44,2.6-4.44,3.3-4.71,8.72-.58,12.38,3.04,2.7,6.83,4.06,10.52,5.58,4.75,1.96,9.58,3.74,14.09,6.26,8.59,4.78,13.66,11.56,12.47,21.84-1.08,9.3-7.72,16.48-18.03,18.97-13.36,3.23-25.64.56-36.9-7.38-2.9-2.05-3.08-3.78-.92-6.38,1.8-2.16,2.91-5.55,5.13-6.47,1.4-.58,4.22,2.48,6.49,3.74,5.92,3.29,12.15,5.33,19.06,4.12,4.73-.83,8.77-2.81,9.63-8.01.87-5.29-3.11-7.79-7.01-9.75-4.73-2.38-9.7-4.29-14.58-6.38-3.99-1.71-7.85-3.64-11.15-6.5-10.95-9.51-9.46-26,2.97-33.45,11.09-6.64,30.45-5.65,40.86,1.99,1.85,1.36,2.92,2.44,1.41,4.81-1.76,2.76-3.16,5.75-4.8,8.8Z"/>
  <path class="cls-3" d="m339.99,70.01c0-11.8.09-23.61-.06-35.41-.04-3.02.81-3.95,3.9-4.01,11.62-.19,11.62-.31,11.62,11.24,0,20.95-.1,41.9.09,62.85.03,3.77-.99,4.73-4.71,4.66-10.82-.2-10.83-.02-10.83-10.9,0-9.48,0-18.95,0-28.43Z"/>
  <path class="cls-5" d="m456.82,70.06c0,11.65-.08,23.3.06,34.95.04,2.97-.34,4.34-3.92,4.31-11.3-.08-11.3.1-11.3-11.38,0-20.8.12-41.6-.1-62.4-.04-4.03,1.16-4.98,5.01-4.91,10.25.2,10.26.03,10.26,10.48v28.96Z"/>
  <path class="cls-11" d="m401.72,398.14c0,5.49.25,11-.08,16.48-.24,3.92.96,5.37,4.92,4.95,1.56-.16,4.08-1.19,4.7,1.34.59,2.43.77,5.43-3.32,4.72-5.47-.95-6.89,1.55-6.28,6.52.34,2.79-.1,5.67.11,8.48.21,2.9-.56,4.12-3.79,4.14-3.41.01-3.23-1.84-3.18-4.13.07-3.66-.23-7.35.09-10.98.3-3.47-1.14-4.12-4.25-4.05-8.49.18-16.98.12-25.47,0-1.47-.02-3.62,1.08-4.35-1.13-.56-1.71-.31-3.52.96-5.16,3.27-4.2,6.37-8.53,9.55-12.8,6.87-9.2,13.94-18.25,20.51-27.66,2.37-3.4,5.27-2.82,8.31-2.75,2.08.05,1.53,1.83,1.54,3.03.05,6.33.02,12.65.02,18.98Zm-32.57,21.32c8.64,0,16.19-.01,23.74,0,1.56,0,1.93-.86,1.93-2.2-.02-10.15,0-20.3,0-31.41-8.81,11.53-16.9,22.12-25.66,33.6Z"/>
  <path class="cls-3" d="m335.88,444.65c-5.66,0-11.33-.25-16.97.09-3.96.24-4.73-1.38-4.68-4.9.11-7.79,3.69-13.77,9.37-18.52,4.71-3.94,9.89-7.3,14.78-11.03,2.24-1.71,4.43-3.54,6.35-5.58,4.99-5.31,5.75-12.12,2.16-17.32-3.68-5.33-11.38-7.21-17.91-4.38-2.81,1.22-5.35,2.92-6.98,5.46-1.95,3.04-3.54,1.6-5.59.27-2.73-1.77-.66-3.1.29-4.37,6.61-8.96,18.97-12.04,29.07-7.33,10.02,4.67,13.73,17.11,8.1,27.22-2.31,4.15-5.63,7.39-9.43,10.16-4.3,3.13-8.71,6.11-12.95,9.32-2.11,1.6-4.06,3.44-5.85,5.39-2.05,2.24-4.32,5.27-3.32,7.93.97,2.6,4.67,1.02,7.12,1.07,8.15.17,16.31.14,24.47.02,2.44-.03,3.62.48,3.62,3.26,0,2.8-1.25,3.31-3.66,3.27-5.99-.11-11.98-.04-17.98-.04Z"/>
  <path class="cls-3" d="m227.95,444.64c-6,0-12-.09-17.99.04-2.39.05-3.13-.83-3.27-3.14-.48-7.75,2.59-13.92,8.03-19.12,4.59-4.39,10.03-7.68,15.14-11.4,2.83-2.06,5.64-4.15,7.86-6.89,4.63-5.72,5.05-12.32,1.12-17.41-3.68-4.77-11.03-6.36-17.26-3.82-2.86,1.17-5.36,2.92-7.05,5.38-1.83,2.65-3.28,2.29-5.52.63-3.05-2.27-.59-3.73.61-5.2,6.69-8.24,17.62-11.04,27.51-7.16,12.11,4.75,15.58,19.98,7.02,30.9-3.86,4.93-9.03,8.33-14.1,11.83-4.11,2.84-8.37,5.52-11.62,9.37-1.37,1.62-2.48,3.55-3.33,5.5-1.18,2.72-.62,4.2,2.94,4.12,9.32-.21,18.66-.02,27.98-.1,2.4-.02,4.01,0,4.01,3.29,0,3.4-1.81,3.23-4.11,3.21-6-.06-11.99-.02-17.99-.02Z"/>
  <path class="cls-2" d="m517.8.26c5.35-.07,10.7-.13,16.04-.2-3.56,6.79-8.85,12.34-13.3,18.49-1.76,2.43-4.66.98-7.03,1.22-1.93.19-3.9.04-6.69.04,3.91-6.97,7.45-13.26,10.98-19.55Z"/>
  <path class="cls-5" d="m340.05.4c5.07.07,10.13.14,15.2.21.05,1.15.14,2.3.14,3.46.08,12.59-.26,12.82-13.13,11.42-2.01-.22-2.46-.95-2.41-2.73.13-4.12.14-8.24.2-12.35Z"/>
  <path class="cls-5" d="m456.82,8.14q0,7.28-8.82,7.28-6.35,0-6.34-9.29,0-6.04,9.61-6.03,5.56,0,5.56,8.05Z"/>
  <path class="cls-12" d="m585.95,44.5c-.22.39-.54,1.14-.63,1.11-.85-.26-.57-.91-.38-1.5.34.13.67.26,1.01.39Z"/>
  <path class="cls-12" d="m166.74,39.1c-.13.32-.26.64-.38.96-.18-.21-.35-.42-.53-.63.27-.2.58-.31.91-.33Z"/>
</svg>